<?xml version="1.0" standalone="no"?><!-- Generator: Gravit.io --><svg xmlns="http://www.w3.org/2000/svg" xmlns:xlink="http://www.w3.org/1999/xlink" style="isolation:isolate" viewBox="0 0 270 90" width="270" height="90"><defs><clipPath id="_clipPath_7Azk53OI8RpBLWzYUb8uRouKLxX1j6g8"><rect width="270" height="90"/></clipPath></defs><g clip-path="url(#_clipPath_7Azk53OI8RpBLWzYUb8uRouKLxX1j6g8)"><g id="#ed1c24ff"><path d=" M 186.171 49.014 C 186.769 46.478 189.725 45.688 191.917 45.056 C 191.967 55.472 191.933 65.89 191.935 76.308 C 190.001 76.316 188.069 76.3 186.135 76.316 C 186.163 67.216 186.091 58.112 186.171 49.014 Z " fill="rgb(237,28,36)"/><path d=" M 123.337 46.16 C 127.059 46.182 130.783 46.156 134.507 46.172 C 138.681 46.24 142.941 47.824 145.735 51.008 C 151.425 57.386 150.267 68.62 143.195 73.528 C 140.457 75.484 137.049 76.372 133.707 76.312 C 130.465 76.32 127.223 76.288 123.981 76.328 C 123.955 69.224 123.943 62.12 123.985 55.018 C 124.381 52.742 127.061 52.386 128.757 51.652 C 125.949 51.49 122.699 49.352 123.337 46.16 M 129.749 51.758 C 129.777 58.126 129.751 64.494 129.763 70.86 C 132.455 70.798 135.345 71.248 137.831 69.954 C 143.749 67.014 144.891 57.602 139.651 53.488 C 136.855 51.236 133.083 51.758 129.749 51.758 L 129.749 51.758 Z " fill="rgb(237,28,36)"/><path d=" M 152.601 56.85 C 153.467 54.52 156.091 53.648 158.237 52.888 C 158.241 60.698 158.247 68.508 158.233 76.318 C 156.349 76.312 154.465 76.29 152.583 76.33 C 152.559 69.838 152.523 63.34 152.601 56.85 L 152.601 56.85 Z " fill="rgb(237,28,36)"/><path d=" M 166.183 54.52 C 169.423 53.162 173.133 52.864 176.525 53.8 C 178.627 54.42 180.479 56.018 181.215 58.108 C 182.135 60.574 181.903 63.254 181.939 65.836 C 181.877 69.33 182.061 72.844 181.845 76.328 C 180.089 76.298 178.331 76.3 176.573 76.326 C 176.513 75.96 176.473 75.59 176.451 75.222 C 173.279 77.196 169.087 77.124 165.657 75.88 C 160.977 73.856 160.899 66.406 165.225 63.95 C 168.655 62.102 172.729 62.708 176.453 62.966 C 176.729 61.16 175.835 59.032 173.907 58.624 C 170.809 57.934 167.567 58.54 164.581 59.47 C 164.589 58.386 164.551 57.302 164.593 56.218 C 164.669 55.366 165.449 54.812 166.183 54.52 M 169.429 66.956 C 167.467 67.854 167.247 70.926 169.017 72.13 C 170.871 73.32 173.427 72.948 175.147 71.686 C 176.633 70.494 176.545 68.438 176.453 66.722 C 174.169 66.254 171.601 65.908 169.429 66.956 L 169.429 66.956 Z " fill="rgb(237,28,36)"/><path d=" M 206.171 53.322 C 211.127 52.798 216.467 55.326 218.585 59.96 C 221.115 65.076 219.205 71.876 214.303 74.84 C 209.021 78.26 201.093 77.22 197.371 71.976 C 194.505 68.068 194.499 62.356 197.269 58.396 C 199.271 55.464 202.659 53.634 206.171 53.322 M 205.979 58.53 C 204.369 58.824 202.955 59.864 202.069 61.224 C 200.217 64.222 200.963 68.612 203.903 70.646 C 206.209 72.358 209.713 72.102 211.743 70.07 C 213.613 68.278 214.109 65.396 213.393 62.968 C 212.513 59.86 209.151 57.812 205.979 58.53 Z " fill="rgb(237,28,36)"/><path d=" M 224.599 57.134 C 227.747 53.036 233.809 52.428 238.309 54.432 C 239.177 54.758 239.787 55.544 240.647 55.85 C 241.839 53.72 244.621 53.644 246.763 53.342 C 246.771 58.572 246.765 63.804 246.767 69.036 C 246.797 72.736 246.811 76.778 244.609 79.942 C 241.417 84.03 235.343 85.062 230.719 83.012 C 229.187 82.1 229.965 80.078 229.771 78.632 C 232.461 79.242 235.485 79.532 237.973 78.094 C 239.995 76.912 240.651 74.37 240.591 72.176 C 236.517 75.302 230.313 75.822 226.115 72.65 C 221.489 69.076 221.185 61.628 224.599 57.134 M 233.171 58.322 C 231.175 58.526 229.361 59.952 228.709 61.85 C 228.017 63.83 228.289 66.218 229.729 67.808 C 232.041 70.36 236.497 70.448 238.993 68.12 C 241.251 65.936 241.029 61.896 238.703 59.844 C 237.217 58.5 235.119 58.074 233.171 58.322 L 233.171 58.322 Z " fill="rgb(237,28,36)"/></g><g id="svg_85"><g id="svg_84"><g id="svg_69"><g id="svg_70"><g id="svg_71"><linearGradient id="_lgradient_6" x1="0%" y1="50%" x2="6.123233995736766e-15%" y2="-50%"><stop offset="0%" stop-opacity="1" style="stop-color:rgb(241,72,29)"/><stop offset="100%" stop-opacity="1" style="stop-color:rgb(246,134,18)"/></linearGradient><path d=" M 246.514 28.242 L 263.293 18.83 L 246.514 9.414 L 246.514 28.242 L 246.514 28.242 Z " fill="url(#_lgradient_6)"/></g></g></g><g id="svg_63"><g id="svg_64"><g id="svg_65"><g id="svg_66"><linearGradient id="_lgradient_7" x1="0%" y1="50%" x2="100%" y2="50%"><stop offset="0%" stop-opacity="1" style="stop-color:rgb(41,43,102)"/><stop offset="99.36839999999928%" stop-opacity="1" style="stop-color:rgb(198,14,121)"/></linearGradient><path d=" M 246.514 28.242 L 246.514 28.242 L 263.293 37.656 L 263.293 18.83 L 263.292 18.83 L 246.514 28.242 L 246.514 28.242 Z " fill="url(#_lgradient_7)"/></g></g></g></g><g id="svg_61"><path d=" M 229.729 37.656 L 246.514 47.072 L 246.514 28.241 L 229.729 37.656 Z " fill="rgb(238,30,128)"/></g><g id="svg_59"><path d=" M 229.729 0 L 229.729 18.826 L 246.514 9.414 L 229.729 0 L 229.729 0 Z " fill="rgb(250,178,32)"/></g><g id="svg_57"><path d=" M 246.514 9.414 L 246.514 9.414 L 229.729 18.826 L 246.514 28.242 L 246.514 9.414 Z " fill="rgb(246,135,18)"/></g><g id="svg_52"><g id="svg_53"><g id="svg_54"><linearGradient id="_lgradient_8" x1="0%" y1="50%" x2="100%" y2="50%"><stop offset="0%" stop-opacity="1" style="stop-color:rgb(178,25,53)"/><stop offset="98.67250000000048%" stop-opacity="1" style="stop-color:rgb(236,17,89)"/></linearGradient><path d=" M 246.514 47.071 L 263.293 37.656 L 246.514 28.242 L 246.514 47.071 Z " fill="url(#_lgradient_8)"/></g></g></g></g></g><path d=" M 177.64 35.339 L 177.64 11.781 L 184.971 11.781 L 184.971 11.781 Q 189.982 11.781 192.246 13.207 L 192.246 13.207 L 192.246 13.207 Q 194.51 14.633 194.51 17.743 L 194.51 17.743 L 194.51 17.743 Q 194.51 19.854 193.519 21.208 L 193.519 21.208 L 193.519 21.208 Q 192.528 22.561 190.885 22.835 L 190.885 22.835 L 190.885 22.996 L 190.885 22.996 Q 193.125 23.496 194.115 24.865 L 194.115 24.865 L 194.115 24.865 Q 195.106 26.235 195.106 28.507 L 195.106 28.507 L 195.106 28.507 Q 195.106 31.729 192.778 33.534 L 192.778 33.534 L 192.778 33.534 Q 190.45 35.339 186.454 35.339 L 186.454 35.339 L 177.64 35.339 Z  M 182.635 15.874 L 182.635 21.111 L 185.535 21.111 L 185.535 21.111 Q 187.565 21.111 188.476 20.482 L 188.476 20.482 L 188.476 20.482 Q 189.386 19.854 189.386 18.404 L 189.386 18.404 L 189.386 18.404 Q 189.386 17.05 188.395 16.462 L 188.395 16.462 L 188.395 16.462 Q 187.404 15.874 185.261 15.874 L 185.261 15.874 L 182.635 15.874 Z  M 185.729 25.075 L 182.635 25.075 L 182.635 31.214 L 185.89 31.214 L 185.89 31.214 Q 187.952 31.214 188.935 30.424 L 188.935 30.424 L 188.935 30.424 Q 189.918 29.635 189.918 28.007 L 189.918 28.007 L 189.918 28.007 Q 189.918 25.075 185.729 25.075 L 185.729 25.075 Z  M 202.261 11.781 L 207.143 21.481 L 212.058 11.781 L 217.439 11.781 L 209.625 26.17 L 209.625 35.339 L 204.662 35.339 L 204.662 26.332 L 196.847 11.781 L 202.261 11.781 Z  M 11.995 15.874 L 11.995 22.867 L 13.639 22.867 L 13.639 22.867 Q 15.943 22.867 17.087 21.957 L 17.087 21.957 L 17.087 21.957 Q 18.231 21.046 18.231 19.306 L 18.231 19.306 L 18.231 19.306 Q 18.231 17.55 17.272 16.712 L 17.272 16.712 L 17.272 16.712 Q 16.313 15.874 14.267 15.874 L 14.267 15.874 L 11.995 15.874 Z  M 23.274 19.129 L 23.274 19.129 L 23.274 19.129 Q 23.274 22.932 20.898 24.946 L 20.898 24.946 L 20.898 24.946 Q 18.521 26.96 14.138 26.96 L 14.138 26.96 L 11.995 26.96 L 11.995 35.339 L 7 35.339 L 7 11.781 L 14.525 11.781 L 14.525 11.781 Q 18.811 11.781 21.043 13.626 L 21.043 13.626 L 21.043 13.626 Q 23.274 15.471 23.274 19.129 Z  M 49.104 23.528 L 49.104 23.528 L 49.104 23.528 Q 49.104 29.377 46.204 32.519 L 46.204 32.519 L 46.204 32.519 Q 43.303 35.661 37.889 35.661 L 37.889 35.661 L 37.889 35.661 Q 32.475 35.661 29.575 32.519 L 29.575 32.519 L 29.575 32.519 Q 26.674 29.377 26.674 23.496 L 26.674 23.496 L 26.674 23.496 Q 26.674 17.614 29.583 14.512 L 29.583 14.512 L 29.583 14.512 Q 32.491 11.411 37.921 11.411 L 37.921 11.411 L 37.921 11.411 Q 43.352 11.411 46.228 14.537 L 46.228 14.537 L 46.228 14.537 Q 49.104 17.663 49.104 23.528 Z  M 31.911 23.528 L 31.911 23.528 L 31.911 23.528 Q 31.911 27.476 33.41 29.474 L 33.41 29.474 L 33.41 29.474 Q 34.908 31.472 37.889 31.472 L 37.889 31.472 L 37.889 31.472 Q 43.867 31.472 43.867 23.528 L 43.867 23.528 L 43.867 23.528 Q 43.867 15.568 37.921 15.568 L 37.921 15.568 L 37.921 15.568 Q 34.94 15.568 33.426 17.574 L 33.426 17.574 L 33.426 17.574 Q 31.911 19.58 31.911 23.528 Z  M 82.926 11.781 L 76.932 35.339 L 71.244 35.339 L 68.053 22.964 L 68.053 22.964 Q 67.876 22.303 67.449 20.233 L 67.449 20.233 L 67.449 20.233 Q 67.022 18.162 66.958 17.453 L 66.958 17.453 L 66.958 17.453 Q 66.861 18.323 66.474 20.249 L 66.474 20.249 L 66.474 20.249 Q 66.087 22.174 65.878 22.996 L 65.878 22.996 L 62.704 35.339 L 57.032 35.339 L 51.021 11.781 L 55.936 11.781 L 58.949 24.64 L 58.949 24.64 Q 59.739 28.201 60.093 30.811 L 60.093 30.811 L 60.093 30.811 Q 60.19 29.893 60.536 27.967 L 60.536 27.967 L 60.536 27.967 Q 60.883 26.042 61.189 24.978 L 61.189 24.978 L 64.621 11.781 L 69.342 11.781 L 72.774 24.978 L 72.774 24.978 Q 73 25.864 73.338 27.685 L 73.338 27.685 L 73.338 27.685 Q 73.677 29.506 73.854 30.811 L 73.854 30.811 L 73.854 30.811 Q 74.015 29.554 74.37 27.677 L 74.37 27.677 L 74.37 27.677 Q 74.724 25.8 75.014 24.64 L 75.014 24.64 L 78.011 11.781 L 82.926 11.781 Z  M 99.458 31.214 L 99.458 35.339 L 85.891 35.339 L 85.891 11.781 L 99.458 11.781 L 99.458 15.874 L 90.886 15.874 L 90.886 21.046 L 98.862 21.046 L 98.862 25.139 L 90.886 25.139 L 90.886 31.214 L 99.458 31.214 Z  M 109.368 15.874 L 109.368 22.239 L 110.979 22.239 L 110.979 22.239 Q 113.348 22.239 114.476 21.449 L 114.476 21.449 L 114.476 21.449 Q 115.604 20.66 115.604 18.968 L 115.604 18.968 L 115.604 18.968 Q 115.604 17.292 114.451 16.583 L 114.451 16.583 L 114.451 16.583 Q 113.299 15.874 110.882 15.874 L 110.882 15.874 L 109.368 15.874 Z  M 112.026 26.299 L 109.368 26.299 L 109.368 35.339 L 104.373 35.339 L 104.373 11.781 L 111.237 11.781 L 111.237 11.781 Q 116.039 11.781 118.343 13.53 L 118.343 13.53 L 118.343 13.53 Q 120.647 15.278 120.647 18.839 L 120.647 18.839 L 120.647 18.839 Q 120.647 20.917 119.503 22.537 L 119.503 22.537 L 119.503 22.537 Q 118.359 24.156 116.264 25.075 L 116.264 25.075 L 116.264 25.075 Q 121.582 33.019 123.193 35.339 L 123.193 35.339 L 117.65 35.339 L 112.026 26.299 Z  M 139.725 31.214 L 139.725 35.339 L 126.158 35.339 L 126.158 11.781 L 139.725 11.781 L 139.725 15.874 L 131.153 15.874 L 131.153 21.046 L 139.129 21.046 L 139.129 25.139 L 131.153 25.139 L 131.153 31.214 L 139.725 31.214 Z  M 164.185 23.334 L 164.185 23.334 L 164.185 23.334 Q 164.185 29.151 160.874 32.245 L 160.874 32.245 L 160.874 32.245 Q 157.563 35.339 151.311 35.339 L 151.311 35.339 L 144.64 35.339 L 144.64 11.781 L 152.036 11.781 L 152.036 11.781 Q 157.804 11.781 160.995 14.827 L 160.995 14.827 L 160.995 14.827 Q 164.185 17.872 164.185 23.334 Z  M 158.997 23.463 L 158.997 23.463 L 158.997 23.463 Q 158.997 15.874 152.293 15.874 L 152.293 15.874 L 149.635 15.874 L 149.635 31.214 L 151.778 31.214 L 151.778 31.214 Q 158.997 31.214 158.997 23.463 Z " fill-rule="evenodd" fill="rgb(28,30,33)"/></g></svg>